<?xml version="1.0" encoding="UTF-8" standalone="no"?>
<!-- Created with Inkscape (http://www.inkscape.org/) -->

<svg
   xmlns:dc="http://purl.org/dc/elements/1.1/"
   xmlns:cc="http://creativecommons.org/ns#"
   xmlns:rdf="http://www.w3.org/1999/02/22-rdf-syntax-ns#"
   xmlns:svg="http://www.w3.org/2000/svg"
   xmlns="http://www.w3.org/2000/svg"
   xmlns:sodipodi="http://sodipodi.sourceforge.net/DTD/sodipodi-0.dtd"
   xmlns:inkscape="http://www.inkscape.org/namespaces/inkscape"
   width="2700"
   height="3780"
   id="svg2"
   version="1.1"
   inkscape:version="0.48.4 r9939"
   sodipodi:docname="New document 1">
  <defs
     id="defs4" />
  <sodipodi:namedview
     id="base"
     pagecolor="#ffffff"
     bordercolor="#666666"
     borderopacity="1.0"
     inkscape:pageopacity="0.0"
     inkscape:pageshadow="2"
     inkscape:zoom="0.24748737"
     inkscape:cx="1472.3678"
     inkscape:cy="1983.0459"
     inkscape:document-units="px"
     inkscape:current-layer="layer1"
     showgrid="false"
     inkscape:window-width="1024"
     inkscape:window-height="578"
     inkscape:window-x="-8"
     inkscape:window-y="-8"
     inkscape:window-maximized="1" />
  <metadata
     id="metadata7">
    <rdf:RDF>
      <cc:Work
         rdf:about="">
        <dc:format>image/svg+xml</dc:format>
        <dc:type
           rdf:resource="http://purl.org/dc/dcmitype/StillImage" />
        <dc:title></dc:title>
      </cc:Work>
    </rdf:RDF>
  </metadata>
  <g
     inkscape:label="Layer 1"
     inkscape:groupmode="layer"
     id="layer1"
     transform="translate(0,2727.6378)">
    <path
       style="fill:#000000;fill-opacity:1;fill-rule:nonzero;stroke:none"
       id="path2985"
       d="m 172.65923,1615.3536 c 14.37027,-10.0431 28.23915,-20.7508 41.99732,-31.6142 14.47312,-9.3539 28.57909,-19.2144 42.718,-29.0607 15.02831,-9.8325 29.75971,-20.1165 44.34094,-30.6 16.31347,-12.2052 32.97683,-23.9056 49.96632,-35.1478 19.05963,-13.8368 38.9704,-26.4299 58.05872,-40.2181 15.49516,-11.3958 31.92299,-21.4435 47.65157,-32.5077 14.64613,-9.7805 29.89566,-18.6662 44.92541,-27.8623 19.02038,-10.9475 37.98319,-21.9956 57.06113,-32.8425 2.31447,-1.3159 4.77556,-2.3592 7.10872,-3.6417 34.1971,-18.7973 -62.29591,36.8074 -29.3845,16.2823 2.10743,-1.3143 4.23409,-2.5975 6.35114,-3.8963 11.2821,-6.4764 22.1491,-13.6073 33.08128,-20.645 25.30382,-17.7274 52.95978,-31.6831 79.79967,-46.9066 11.01162,-3.6081 21.28286,-8.8004 31.73371,-13.73 26.09113,-11.349 54.55871,-14.2999 82.51478,-17.6241 41.69323,-4.289 83.4889,-7.4606 125.27793,-10.6457 38.03887,-2.9318 76.13389,-5.0774 114.18773,-7.7891 33.0478,-3.4471 66.1867,-3.7671 99.3257,-1.8966 35.6432,2.6812 70.7008,9.968 105.6176,17.2884 35.6669,7.726 71.1278,16.7801 105.5907,28.8299 36.3668,13.2983 70.4055,31.6968 105.0399,48.7834 48.549,24.4271 95.0722,52.6808 141.2486,81.2821 8.0485,5.1335 16.4345,9.7728 24.1456,15.4005 11.4201,8.3346 22.0388,17.7163 33.1718,26.4306 47.5557,37.2244 95.7091,73.6036 142.7557,111.4811 32.7094,27.3463 65.6014,54.6764 95.8402,84.7932 6.9411,6.913 27.1013,28.3615 34.1672,35.8429 17.746,20.906 37.3374,40.1443 54.9847,61.1342 7.1895,8.5513 14.1433,17.2988 21.3127,25.867 16.7866,19.5997 31.8641,40.5584 47.2939,61.2173 11.644,14.7202 22.6729,29.9154 33.693,45.1049 8.103,11.0737 14.7537,22.5303 18.1854,35.8517 2.4065,13.293 2.8621,26.8604 4.1462,40.2999 1.4697,15.1051 1.8221,30.283 2.0876,45.4479 0.8301,13.2545 -0.6766,26.4287 -1.9627,39.5943 -2.0443,12.4208 -3.8066,24.8755 -4.8589,37.4207 -0.6426,7.307 -0.4804,14.6491 -1.0303,21.9576 0,0 -53.5147,26.3135 -53.5147,26.3135 l 0,0 c 1.5982,-7.1463 0.5864,-14.5905 1.5523,-21.8489 1.1416,-12.5899 3.0825,-25.0675 4.9104,-37.5719 1.5003,-13.0169 3.4103,-26.0096 2.6741,-39.1571 -0.174,-15.0376 -0.4835,-30.0822 -1.8149,-45.0709 -1.1956,-13.1287 -2.5756,-26.2433 -4.1383,-39.3206 -2.9483,-12.6968 -9.0791,-23.6253 -16.6679,-34.1903 -10.5431,-15.4282 -21.5703,-30.5614 -32.877,-45.4348 -15.1278,-20.7012 -29.7321,-41.8034 -46.0133,-61.6365 -10.8296,-13.4059 -21.2236,-27.1804 -32.5006,-40.2194 -6.5055,-7.5218 -21.2885,-23.5211 -27.6788,-30.8139 -4.8249,-5.5064 -9.5027,-11.1401 -14.2541,-16.7101 -5.4956,-6.0464 -27.8359,-30.7074 -33.1098,-36.1649 -29.3338,-30.3553 -61.1754,-58.2233 -92.6912,-86.2475 -64.2953,-54.3879 -130.4771,-106.9616 -202.4249,-150.9921 -46.2462,-28.6435 -93.1243,-56.4887 -142.2466,-79.966 -34.9363,-16.623 -69.4761,-34.1161 -105.8612,-47.4694 -34.2464,-11.9608 -69.4983,-20.9006 -104.985,-28.3578 -34.7979,-7.2006 -69.7854,-14.1693 -105.32,-16.4289 -33.0016,-1.389 -65.93688,-0.6035 -98.8495,2.3639 -37.85196,2.4756 -75.73355,4.4859 -113.56,7.3772 -41.86209,3.1529 -83.75809,6.0298 -125.44224,11.1285 -28.54371,3.9425 -57.56037,7.9722 -83.70934,20.8721 -10.52486,5.2074 -21.42447,9.3816 -32.05214,14.3249 -20.15882,10.3573 -8.41707,4.4323 40.68143,-24.0746 7.07731,-4.1092 -26.1525,15.3565 -19.31968,12.3916 -11.00558,7.2246 -22.03491,14.4051 -33.421,21.0265 -23.4882,13.5649 -46.61436,27.679 -70.10311,41.3395 -2.3768,1.3823 -4.79808,2.6869 -7.21221,4.0029 -2.31261,1.2607 -9.23554,5.0663 -6.96761,3.7269 14.21344,-8.3943 28.53953,-16.5963 42.80929,-24.8945 -15.07507,9.0727 -29.9953,18.407 -45.09946,27.404 -15.53529,11.7055 -32.51472,21.3286 -48.2542,32.7374 -18.99273,14.0337 -39.13868,26.3029 -58.03065,40.4952 -16.79852,11.1096 -33.42654,22.4482 -49.415,34.6917 -14.55713,10.4459 -29.07572,20.9368 -44.13257,30.6508 -14.38155,9.7354 -28.08426,20.4688 -43.32769,28.9012 -13.33653,10.42 -26.31037,21.323 -40.28269,30.8704 0,0 -55.4946,22.2704 -55.4946,22.2704 z"
       inkscape:connector-curvature="0"
       transform="translate(0,-2727.6378)" />
    <path
       style="fill:#000000;fill-opacity:1;fill-rule:nonzero;stroke:none"
       id="path2987"
       d="m 276.83705,1587.5707 c 14.71592,-4.0605 29.45336,-7.9114 44.04269,-12.4314 11.87793,-4.7647 24.4392,-7.6156 36.18765,-12.7433 0.45946,-0.2006 17.50091,-8.5597 17.95201,-8.7808 17.11264,-8.6559 34.00512,-17.7576 51.74353,-25.0944 7.18515,-2.0644 13.94011,-5.8436 21.26076,-7.4808 10.75767,-2.4058 22.28504,-2.4809 33.22236,-3.0708 40.62647,-0.8375 80.90835,4.8633 121.14939,9.605 47.799,6.0522 95.70946,11.1986 143.63083,16.1757 36.73218,3.2048 73.41796,6.6633 109.89164,12.1091 34.87999,4.7408 69.60087,10.5412 104.44215,15.5491 27.2587,4.4902 54.69294,7.3866 81.79114,12.828 27.4063,4.5855 53.8632,13.4064 79.6993,23.435 27.565,11.8191 55.0679,23.7782 81.8137,37.3656 29.263,15.3127 56.2316,34.2029 83.16,53.1897 29.1265,19.6382 56.2382,41.97 83.479,64.085 25.1024,21.8292 50.4609,43.337 76.4763,64.0699 27.7706,21.8914 56.2016,42.9459 84.5741,64.0515 20.7977,15.3005 39.4959,33.2067 56.8387,52.2734 14.9553,16.5673 27.5149,35.0086 42.4174,51.6042 20.55,20.2165 41.8099,39.6881 62.2694,60.0051 23.4476,21.0921 47.8065,41.1434 73.2067,59.8352 30.3629,20.6325 63.0109,37.3661 95.9753,53.3424 23.5525,10.9602 48.1889,19.1523 72.8564,27.14 15.3572,4.6483 30.9417,8.5243 46.8254,10.842 12.1232,1.4739 24.3571,1.5575 36.5517,1.7159 16.5358,-0.012 33.051,-2.3755 49.2556,-5.5523 8.2873,-2.317 8.1536,-2.0067 15.9065,-5.2026 2.4041,-0.9909 9.3704,-4.488 7.1242,-3.178 -81.2887,47.4108 -46.07,26.0647 -28.7019,14.5488 14.524,-9.6114 29.1003,-19.137 43.6158,-28.7607 8.7463,-5.4893 16.3806,-12.5637 23.5364,-19.9613 1.0486,-1.021 2.0972,-2.0421 3.1458,-3.0632 0,0 54.988,-22.6211 54.988,-22.6211 l 0,0 c -1.0651,0.9928 -2.1302,1.9856 -3.1954,2.9784 -7.7311,7.2504 -14.7247,15.4624 -23.6246,21.3727 -15.1524,9.0447 -29.473,19.494 -44.412,28.9014 -29.6649,19.9466 -59.2383,42.9676 -94.8201,50.0268 -16.631,2.8352 -33.4482,5.4105 -50.3694,4.9999 -12.437,-0.042 -24.8896,-0.2684 -37.1846,-2.3981 -15.7545,-2.9523 -31.3378,-6.8893 -46.4714,-12.203 -24.4284,-8.4319 -48.8607,-17.0576 -72.028,-28.6169 -32.9605,-16.4603 -65.2848,-34.1752 -96.1175,-54.4009 -25.8861,-18.6677 -51.0453,-38.3057 -74.412,-60.0898 -20.5949,-20.4023 -41.9946,-39.933 -62.9559,-59.95 -15.0245,-16.5086 -28.0805,-34.6143 -42.8415,-51.3591 -16.8511,-18.8872 -34.7022,-36.893 -54.9533,-52.1938 -27.8949,-21.8326 -56.7532,-42.3619 -84.6769,-64.1468 -25.8798,-20.8753 -51.3467,-42.2186 -76.2698,-64.2363 -27.2092,-22.0401 -54.0969,-44.4719 -83.4599,-63.6609 -26.7446,-18.9829 -53.7223,-37.508 -83.1408,-52.2119 -26.6449,-13.4342 -53.9251,-25.5299 -81.5298,-36.858 -25.7735,-9.7748 -52.2217,-17.8233 -79.45097,-22.4179 -26.88413,-5.1932 -54.09748,-8.1833 -81.04048,-13.052 -34.61667,-5.5633 -69.23841,-11.1321 -103.98409,-15.8388 -36.28327,-5.2693 -72.78337,-8.5211 -109.23999,-12.3404 -47.51628,-5.8116 -95.07823,-11.2204 -142.611,-16.89 -40.87825,-4.308 -81.91329,-9.3168 -123.0971,-6.9276 -19.10126,1.7855 -36.88556,4.5928 -54.38019,12.8738 -17.39192,7.6797 -34.23372,16.477 -51.21067,25.0186 -17.67629,8.4429 -35.92357,15.0612 -54.65308,20.8119 -15.24696,4.6878 -30.62728,8.9443 -46.00265,13.1742 0,0 47.80517,-36.1954 47.80517,-36.1954 z"
       inkscape:connector-curvature="0"
       transform="translate(0,-2727.6378)" />
    <path
       style="fill:#000000;fill-opacity:1;fill-rule:nonzero;stroke:none"
       id="path2993"
       d="m 2015.266,1729.2 c 14.3946,-1.2945 28.8178,-2.0643 43.2615,-2.4936 15.7888,-0.4273 31.5832,-0.4025 47.3762,-0.3832 16.3744,-0 32.7491,0.06 49.1234,-0.017 8.9502,0.087 19.0638,-0.2504 27.2816,4.0843 2.9278,1.5443 8.653,6.5448 11.1415,8.6197 10.5351,9.4947 18.3367,21.1217 25.5223,33.2099 6.5345,9.9604 10.2782,21.2835 15.6457,31.8607 10.1204,19.3405 25.5458,35.1948 40.3383,51.004 19.7308,19.8752 37.1174,41.754 52.5829,65.0609 11.1161,17.2511 20.4837,35.3827 27.281,54.7388 3.7548,15.0135 8.744,29.6838 11.919,44.8381 1.8417,11.6871 4.4638,23.2157 6.0304,34.9516 1.4082,13.0713 0.5547,25.9125 -2.6326,38.6274 -4.2532,15.3679 -14.2018,28.0401 -22.8309,41.1481 -10.893,16.7989 -22.6852,32.9774 -33.7021,49.6932 -12.4628,19.8277 -25.5073,39.283 -38.3765,58.8485 -14.0849,20.8131 -29.1594,40.9182 -43.099,61.8318 -11.9813,16.5461 -22.9525,33.8055 -34.8494,50.4058 -6.9414,10.1047 -14.7597,19.5403 -24.3845,27.1658 -27.7412,19.0682 -56.0422,38.7478 -88.1373,49.4572 -12.7964,3.5607 -26.0747,3.7438 -39.2491,3.8636 -17.7914,-1.6405 -35.406,-5.3068 -52.8086,-9.3123 -18.0334,-4.4876 -36.2922,-7.8442 -54.4611,-11.7193 -27.2161,-4.9592 -54.2478,-10.8708 -81.2697,-16.7815 -32.1597,-7.6467 -63.5337,-18.1877 -94.4389,-29.8377 -25.8271,-9.8918 -51.6254,-19.8514 -77.3204,-30.0849 -16.8082,-6.8048 -32.9531,-15.0444 -49.2002,-23.0478 -12.7678,-7.955 -26.4189,-14.0567 -40.2174,-19.9456 -15.7476,-6.7891 -31.3996,-13.6361 -47.7003,-19.0127 -18.5116,-5.8816 -36.8782,-12.2192 -55.0383,-19.109 -23.0535,-8.6234 -45.2578,-19.2751 -67.974,-28.7112 -25.8801,-10.6277 -51.3264,-22.1783 -76.4424,-34.496 -20.0539,-8.3423 -39.7871,-17.473 -57.9349,-29.4599 -12.9951,-9.0421 -26.382,-17.4094 -39.1575,-26.7545 -9.5781,-7.1878 -18.7326,-14.9943 -27.0792,-23.5901 -7.7652,-9.8026 -14.9762,-20.0379 -23.1784,-29.4798 -9.6361,-11.5932 -20.2561,-22.3225 -30.6974,-33.1818 -7.4799,-9.7465 -15.2517,-19.272 -22.6975,-29.0553 -5.9394,-7.6717 -13.9206,-12.8498 -21.5686,-18.554 -8.1057,-6.2471 -16.8312,-11.7096 -25.56,-17.0676 -11.5377,-7.8704 -22.7158,-16.3443 -34.7814,-23.412 -11.6646,-8.8264 -23.5246,-17.3748 -35.4392,-25.862 -11.9951,-7.6818 -22.9295,-16.7183 -34.48837,-25.0249 -10.96341,-7.9267 -21.99511,-15.7553 -33.06147,-23.5448 -8.64191,-5.6844 -17.32605,-11.294 -25.90058,-17.0601 -6.92134,-5.1986 -15.13992,-7.4094 -22.98537,-10.7498 -10.56895,-4.7792 -21.36291,-9.3938 -31.51109,-15.0778 -9.1451,-3.6176 -15.80121,-11.2325 -24.74953,-15.0257 -10.89091,-3.2488 -22.16097,-5.3475 -33.37295,-7.2367 -12.09784,-2.0821 -23.29404,-7.0975 -35.08656,-10.2541 -13.94528,-3.6051 -26.44132,-10.8278 -39.53578,-16.5363 -18.78976,-10.4736 -39.18205,-17.2511 -59.32893,-24.5182 -33.75357,-12.0521 -68.62477,-20.3563 -103.6049,-27.9129 -44.22025,-9.9404 -88.37259,-20.1474 -132.74837,-29.3794 -32.46299,-7.7744 -65.37023,-12.8621 -98.34437,-17.7736 -16.68494,-2.5032 -33.47961,-4.1569 -50.3377,-4.777 -9.55142,-1.0917 -18.69067,0.5934 -28.05536,2.0563 -9.74176,1.175 -19.18855,3.4167 -28.9793,4.3905 -19.21697,0.468 -38.33187,2.5574 -57.51691,3.6398 -23.93011,0.9776 -47.8171,3.3677 -71.50164,6.9002 -25.502981,4.5473 -50.950588,9.3837 -76.359584,14.4362 -21.23861,4.5279 -42.252416,10.0869 -63.555662,14.3109 -14.820684,1.3246 -28.103796,7.3297 -41.677684,12.898 -15.588485,6.4353 -31.203973,13.004 -46.32749,20.4873 -15.47524,7.4295 -30.3972,15.7798 -46.21571,22.5069 0,0 45.85479,-36.2904 45.85479,-36.2904 l 0,0 c 15.689729,-7.0354 30.648817,-15.4751 46.217985,-22.7605 15.271556,-7.0241 30.686979,-13.7657 46.288347,-20.0237 13.8049443,-5.6014 27.607444,-10.6959 42.565659,-12.1499 20.884179,-4.028 41.537582,-9.1517 62.372205,-13.4247 25.549344,-4.9845 51.065184,-10.1577 76.761064,-14.3485 23.93621,-3.1781 47.96609,-5.751 72.10087,-6.7936 19.45437,-1.3613 38.90244,-2.9225 58.32153,-4.6727 9.75625,-1.4468 19.36528,-3.6943 29.18263,-4.7608 9.49811,-1.4403 18.97756,-1.832 28.57177,-0.8943 16.47147,1.2746 32.81672,3.6707 49.11469,6.3452 32.4536,5.2996 64.66569,11.7358 96.66512,19.3441 44.24545,9.9201 88.49295,19.7936 132.83063,29.2887 35.6279,7.3306 71.06214,15.6815 105.52159,27.4663 20.73654,6.9909 41.55186,13.8098 61.02614,23.9576 12.84942,5.8283 25.45968,12.3004 39.25772,15.6927 11.62255,3.3949 22.95445,7.8171 34.99474,9.6478 11.53969,2.2503 23.2946,4.1293 34.2622,8.5 8.72646,4.4658 15.92091,11.2679 24.92698,15.3254 10.10232,5.3657 20.53489,10.2145 31.14089,14.4868 8.38521,3.1628 16.79475,5.9873 23.96586,11.5901 8.56243,5.7265 16.7718,11.9126 25.4083,17.532 11.0897,7.8031 22.0306,15.8178 33.1089,23.6383 11.397,8.4677 22.4087,17.4129 34.4346,24.9889 11.7592,8.4464 23.1664,17.3742 35.1151,25.542 11.903,7.4639 23.2176,15.844 35.2259,23.159 8.8675,5.435 17.5843,11.198 25.8792,17.4622 8.1591,5.9427 16.3133,11.8207 22.3791,20.0744 7.2009,9.6744 14.5471,19.2563 22.1348,28.6233 10.2862,11.0858 20.4854,22.2373 30.5047,33.5727 8.1944,9.3646 15.9261,19.0704 23.6454,28.8225 8.0771,8.2967 16.6668,16.1929 25.9822,23.0811 12.7168,9.1601 25.8373,17.7263 38.6661,26.7296 17.9385,11.606 36.9729,21.1145 56.629,29.4878 24.9101,12.4543 50.3022,23.8381 76.142,34.2321 22.8445,9.4069 45.2977,19.775 68.591,28.076 18.2518,6.8207 36.7901,12.798 55.3631,18.6804 16.2875,5.7948 32.0847,12.698 48.066,19.2611 13.9565,5.8603 27.4034,12.5434 40.434,20.2727 15.8225,8.1806 31.7717,16.1513 48.1317,23.2077 25.2528,10.6364 50.7337,20.7731 76.3283,30.5519 30.6749,11.5148 61.7235,22.2509 93.7812,29.2687 27.3977,5.7263 54.889,10.9628 82.4436,15.8739 18.3865,3.4467 36.7019,7.0057 54.839,11.6199 17.2622,3.7727 34.7493,7.5031 52.4777,7.8092 12.8792,-0.441 25.888,-1.0892 38.1595,-5.4273 4.3732,-1.6983 16.9382,-7.9984 12.9268,-5.5658 -79.9293,48.4707 -47.6897,28.9272 -31.1698,17.5999 1.6804,-1.1522 3.3173,-2.3666 4.976,-3.5499 10.3815,-6.6632 18.7495,-15.7458 25.85,-25.8083 12.6558,-16.3021 23.3327,-34.0886 35.8873,-50.4867 13.7055,-21.0739 28.9031,-41.0862 43.1109,-61.8177 12.7165,-19.5586 25.7317,-38.9287 38.1054,-58.7039 10.6406,-16.6973 22.2478,-32.7063 32.9357,-49.3688 8.2235,-12.7793 18.3327,-24.7833 23.2582,-39.3235 3.4706,-11.9075 5.0479,-24.0363 3.2713,-36.4211 -1.2168,-11.692 -3.6643,-23.1518 -5.3781,-34.7692 -2.8554,-15.0177 -7.6257,-29.5221 -11.1417,-44.3888 -6.2801,-19.065 -15.0467,-36.9657 -25.7257,-53.9766 -14.7783,-23.3181 -32.0082,-44.9282 -51.6488,-64.3696 -15.5767,-15.9353 -31.5738,-31.95 -42.826,-51.3613 -5.7909,-10.3046 -9.2691,-21.6011 -15.5939,-31.6172 -6.7007,-11.5266 -13.9554,-22.7653 -24.2899,-31.4254 -3.2655,-2.4638 -6.3028,-5.1266 -10.1394,-6.7085 -8.1156,-3.3462 -17.3517,-2.6623 -25.8924,-2.8581 -16.3367,-0.094 -32.6739,-0.06 -49.0108,-0.053 -15.7714,0.057 -31.5461,0.1014 -47.3114,0.5797 -14.6539,0.5875 -29.3563,1.3019 -43.8442,3.7118 0,0 47.805,-35.7796 47.805,-35.7796 z"
       inkscape:connector-curvature="0"
       transform="translate(0,-2727.6378)" />
  </g>
</svg>
